<svg width="16" height="16" viewBox="0 0 24 24" fill="none" xmlns="http://www.w3.org/2000/svg">
  <rect x="2" y="2" width="20" height="20" rx="3" fill="#667eea"/>
  <circle cx="7" cy="7" r="1.5" fill="#27ae60"/>
  <circle cx="12" cy="7" r="1.5" fill="#e74c3c"/>
  <circle cx="17" cy="7" r="1.5" fill="#f39c12"/>
  <circle cx="7" cy="12" r="1.5" fill="#9b59b6"/>
  <circle cx="12" cy="12" r="1.5" fill="#1abc9c"/>
  <circle cx="17" cy="12" r="1.5" fill="#34495e"/>
  <circle cx="7" cy="17" r="1.5" fill="#e67e22"/>
  <circle cx="12" cy="17" r="1.5" fill="#16a085"/>
  <circle cx="17" cy="17" r="1.5" fill="#8e44ad"/>
  <path d="M7 7 L12 7 L17 7 M7 12 L12 12 L17 12 M7 17 L12 17 L17 17 M7 7 L7 12 L7 17 M12 7 L12 12 L12 17 M17 7 L17 12 L17 17" stroke="white" stroke-width="0.3" opacity="0.6"/>
</svg>
